PathFileType	4	(X/Y/Z)	/home/abdul/Desktop/myosuite/custom_workspace/IK/output/S14_12_3.trc
DataRate	CameraRate	NumFrames	NumMarkers	Units	OrigDataRate	OrigDataStartFrame	OrigNumFrames
200.0	200.0	33	3	mm	200.0	798	2126
Frame#	Time	V_Shoulder			V_Elbow			V_Wrist		
		X1	Y1	Z1	X2	Y2	Z2	X3	Y3	Z3

798	3.985	-161.65828738002597	680.188178980389	307.1924153628551	-207.14188541232295	527.2928789804512	-3.993463399437216	-92.45072695252075	356.7397136845673	138.1794861375895
799	3.99	-161.79289106941363	680.3644525650833	307.14860797825344	-207.37682289711913	527.6922473964995	-4.103319188799382	-92.72944707055944	358.05519547582935	139.0906139573188
800	3.995	-161.92805798604908	680.5391455508684	307.10469134436573	-207.60813374155768	528.0840978965837	-4.2095774740525	-93.00777255669635	359.3735116095703	140.00540668743616
801	4.0	-162.06376532203754	680.7122896321798	307.06066198270213	-207.83581084757515	528.4683022429359	-4.312178782321261	-93.28573095332199	360.69461568288375	140.92384716150315
802	4.005	-162.19998959026006	680.8839184013256	307.0165165997336	-208.05985066687344	528.844738441492	-4.411066164771981	-93.56335356693995	362.0184629711001	141.84591042258717
803	4.01	-162.33670664637873	681.0540673002096	306.9722521224044	-208.2802531010683	529.2132907652838	-4.506185139313727	-93.84067523800935	363.345010277195	142.77156363508783
804	4.015	-162.47389171105067	681.2227735684324	306.92786573406624	-208.4970213924367	529.5738497593816	-4.597483624214103	-94.11773409301529	364.67421577339053	143.70076601993873
805	4.02	-162.61151939234784	681.3900761878725	306.88335491067227	-208.7101620056511	529.9263122276939	-4.684911863042014	-94.394571279729	366.0060388354774	144.6334688134903
806	4.025	-162.74956370837813	681.556015823843	306.8387174570643	-208.91968450092565	530.2705812020049	-4.768422341378486	-94.67123068672028	367.3404398703825	145.56961525031767
807	4.03	-162.88799811010404	681.7206347629482	306.7939515431886	-209.12560139903056	530.6065658936918	-4.847969695764343	-94.94775864827945	368.67738013749965	146.50914057013148
808	4.035	-163.02679550435306	681.883976847748	306.7490557400755	-209.3279280386659	530.9341816286444	-4.923510615380398	-95.22420363599517	370.01682156429047	147.45197204890616
809	4.04	-163.1659282770135	682.0460874083661	306.70402905541886	-209.52668242671393	531.2533497659633	-4.995003736981447	-95.50061593831617	371.35872655665116	148.39802905426637
810	4.045	-163.3053683164086	682.2070131911679	306.65887096859234	-209.7218850819179	531.5639976010864	-5.062409533629838	-95.77704732949914	372.7030578045251	149.34722312510365
811	4.05	-163.445087036841	682.3668022846504	306.6135814649436	-209.91355887256265	531.8660582540494	-5.125690197797697	-96.05355072941089	374.0497780832251	150.299458075318
812	4.055	-163.58505540229825	682.5255040426877	306.5681610692072	-210.1017288487551	532.1594705436497	-5.184809519428805	-96.3301798557105	375.39885005091173	151.25463012150362
813	4.06	-163.7252439503095	682.6831690052813	306.5226108778836	-210.2864220699256	532.4441788483346	-5.2397327595714085	-96.6069888699856	376.7502360426556	152.21262803431642
814	4.065	-163.8656228159425	682.8398488169692	306.4769325904342	-210.46766742819025	532.7201329546926	-5.290426520212359	-96.88403201945596	378.1038978614918	153.17333331318008
815	4.07	-164.0061617559286	682.9955961430516	306.43112853914585	-210.64549546823184	532.9872878944743	-5.336858610960144	-97.1613632758864	379.4597965668536	154.13662038390328
816	4.075	-164.14683017290398	683.1504645838	306.38520171752475	-210.81993820437083	533.2456037711136	-5.378997913239914	-97.43903597337143	380.81789226075364	155.10235681869443
817	4.08	-164.2875971397519	683.3045085868102	306.3391558070858	-210.9910289355107	533.4950455767679	-5.41681424267745	-97.71710244666218	382.17814387206033	156.07040357797305
818	4.085	-164.4284314240332	683.4577833576717	306.2929952024065	-211.15880205865153	533.7355830009269	-5.450278210360823	-97.99561367170696	383.5405089392002	157.0406152732893
819	4.09	-164.5693015124882	683.6103447691254	306.24672503432396	-211.32329288167077	533.9671902316826	-5.479361083678379	-98.2746189100647	384.90494339159545	158.01284045057398
820	4.095	-164.7101756355954	683.7622492688832	306.2003511911592	-211.4845374360765	534.1898457507743	-5.5040346474394966	-98.55416535883128	386.2714013301353	158.98692189285214
821	4.1	-164.85102179216867	683.9135537862848	306.15388033786036	-211.64257229043722	534.4035321235534	-5.524271065990211	-98.83429780768708	387.63983480695936	159.9626969414646
822	4.105	-164.9918077739768	684.0643156379723	306.1073199329632	-211.7974343651918	534.6082357850315	-5.54004274703923	-99.11505830463493	389.0101936048251	160.93999783475502
823	4.11	-165.1325011903668	684.2145924327571	306.0606782432781	-211.94916074953943	534.8039468231898	-5.551322207911074	-99.3964858319485	390.38242501631726	161.91865206309265
824	4.115	-165.27306949287222	684.3644419758598	306.01396435621706	-212.0977885210994	534.9906587607406	-5.558081944941707	-99.6786159937925	391.75647362315453	162.8984827390177
825	4.12	-165.4134799997877	684.5139221727039	305.9671881896856	-212.24335456902426	535.1683683365336	-5.560294306728494	-99.96148071691059	393.13228107584234	163.87930898121473
826	4.125	-165.55369992069112	684.6630909324409	305.9203604994735	-212.38589542123344	535.3370752878046	-5.557931371940104	-100.2451079657021	394.5097858739216	164.86094631094124
827	4.13	-165.69369638089304	684.8120060713863	305.8734928840841	-212.5254470764208	535.4967821344546	-5.55096483238329	-100.52952147292741	395.8889231470666	165.84320705946533
828	4.135	-165.83343644579423	684.9607252165434	305.826597786956	-212.66204484147082	535.6474939665391	-5.539365882012175	-100.81474048719343	397.26962443729155	166.82590078499692
829	4.14	-165.9728871451313	685.109305709394	305.7796884960348	-212.79572317489692	535.7892182361297	-5.523105112551768	-101.10077953827688	398.6518174825359	167.8088346975333
830	4.145	-166.11201549709094	685.2578045101282	305.73277914066773	-212.9265155368916	535.9219645546918	-5.502152416390782	-101.38764822124301	400.0354260019113	168.79181408998187
